# File created by Blade
# Date/Time:  Thu Jan 22 16:31:19 2015
#---------------------------------------------------------
:version 1.10
:name HOM
:units
  mass 1.0
  length 1.000000
  angle deg
:documentation
     Acclaim Skeleton File
:root
   axis xyz
   order TX TY TZ RX RY RZ
   position 0.000000 0.000000 0.000000
   orientation 0 0 0
:bonedata
   begin
      id 1
      name RightUpLeg_dum
      direction -1.000000 0.000000 0.000000
      length 3.766986
      axis 0.0 0.0 0.0 xyz
   end
   begin
      id 2
      name LeftUpLeg_dum
      direction 1.000000 0.000000 0.000000
      length 3.766986
      axis 0.0 0.0 0.0 xyz
   end
   begin
      id 3
      name Spine_dum
      direction 0.000000 1.000000 0.000000
      length 7.779697
      axis 0.0 0.0 0.0 xyz
   end
   begin
      id 4
      name RightUpLeg
      direction 0.000000 -1.000000 0.000000
      length 18.017682
      axis 0.0 0.0 0.0 xyz
      dof rx ry rz
   end
   begin
      id 5
      name RightLeg
      direction 0.000000 -1.000000 0.000000
      length 16.881075
      axis 0.0 0.0 0.0 xyz
      dof rx ry rz
   end
   begin
      id 6
      name RightFoot
      direction 0.000000 -0.258819 0.965926
      length 5.770812
      axis 15.0 0.0 0.0 xyz
      dof rx ry rz
   end
   begin
      id 7
      name RightToeBase
      direction 0.000000 0.000000 1.000000
      length 2.952750
      axis 0.0 0.0 0.0 xyz
      dof rx ry rz
   end
   begin
      id 8
      name LeftUpLeg
      direction 0.000000 -1.000000 0.000000
      length 18.017682
      axis 0.0 0.0 0.0 xyz
      dof rx ry rz
   end
   begin
      id 9
      name LeftLeg
      direction 0.000000 -1.000000 0.000000
      length 16.881075
      axis 0.0 0.0 0.0 xyz
      dof rx ry rz
   end
   begin
      id 10
      name LeftFoot
      direction 0.000000 -0.258819 0.965926
      length 5.770812
      axis 15.0 0.0 0.0 xyz
      dof rx ry rz
   end
   begin
      id 11
      name LeftToeBase
      direction 0.000000 0.000000 1.000000
      length 2.952750
      axis 0.0 0.0 0.0 xyz
      dof rx ry rz
   end
   begin
      id 12
      name Spine
      direction 0.000000 1.000000 0.000000
      length 0.000000
      axis 0.0 0.0 0.0 xyz
      dof rx ry rz
   end
   begin
      id 13
      name Spine_dum1
      direction 0.000000 1.000000 0.000000
      length 10.941760
      axis 0.0 0.0 0.0 xyz
   end
   begin
      id 14
      name Spine_dum2
      direction 0.000000 1.000000 0.000000
      length 10.941760
      axis 0.0 0.0 0.0 xyz
   end
   begin
      id 15
      name Spine_dum3
      direction 0.000000 1.000000 0.000000
      length 16.646042
      axis 0.0 0.0 0.0 xyz
   end
   begin
      id 16
      name RightShoulder
      direction -1.000000 0.000000 0.000000
      length 7.708937
      axis 0.0 0.0 90.0 xyz
      dof rx ry rz
   end
   begin
      id 17
      name RightArm
      direction -1.000000 0.000000 0.000000
      length 11.521345
      axis 0.0 0.0 90.0 xyz
      dof rx ry rz
   end
   begin
      id 18
      name RightForeArm
      direction -1.000000 0.000000 0.000000
      length 10.175898
      axis 0.0 0.0 90.0 xyz
      dof ry rz rx
   end
   begin
      id 19
      name RightHand
      direction -1.000000 0.000000 0.000000
      length 0.000000
      axis 0.0 0.0 90.0 xyz
      dof rx ry rz
   end
   begin
      id 20
      name RightHand_dum1
      direction -1.000000 0.000000 0.000000
      length 3.937000
      axis 0.0 0.0 90.0 xyz
   end
   begin
      id 21
      name RightHand_dum2
      direction 0.000000 0.000000 0.000000
      length 0.000000
      axis 0.0 0.0 90.0 xyz
   end
   begin
      id 22
      name RightHandThumb1
      direction 0.000000 0.000000 1.000000
      length 3.937000
      axis 0.0 0.0 90.0 xyz
      dof rx rz ry
   end
   begin
      id 23
      name LeftShoulder
      direction 1.000000 0.000000 0.000000
      length 7.708937
      axis 0.0 0.0 -90.0 xyz
      dof rx ry rz
   end
   begin
      id 24
      name LeftArm
      direction 1.000000 0.000000 0.000000
      length 11.521345
      axis 0.0 0.0 -90.0 xyz
      dof rx ry rz
   end
   begin
      id 25
      name LeftForeArm
      direction 1.000000 0.000000 0.000000
      length 10.175898
      axis 0.0 0.0 -90.0 xyz
      dof ry rz rx
   end
   begin
      id 26
      name LeftHand
      direction 1.000000 0.000000 0.000000
      length 0.000000
      axis 0.0 0.0 -90.0 xyz
      dof rx ry rz
   end
   begin
      id 27
      name LeftHand_dum1
      direction 1.000000 0.000000 0.000000
      length 3.937000
      axis 0.0 0.0 -90.0 xyz
   end
   begin
      id 28
      name LeftHand_dum2
      direction 0.000000 0.000000 0.000000
      length 0.000000
      axis 0.0 0.0 -90.0 xyz
   end
   begin
      id 29
      name LeftHandThumb1
      direction 0.000000 0.000000 1.000000
      length 3.937000
      axis 0.0 0.0 -90.0 xyz
      dof rx rz ry
   end
   begin
      id 30
      name Head
      direction 0.000000 1.000000 0.000000
      length 4.527550
      axis 0.0 0.0 0.0 xyz
      dof rx ry rz
   end
:hierarchy
   begin
      root RightUpLeg_dum LeftUpLeg_dum Spine_dum
      RightUpLeg_dum RightUpLeg
      LeftUpLeg_dum LeftUpLeg
      Spine_dum Spine
      RightUpLeg RightLeg
      RightLeg RightFoot
      RightFoot RightToeBase
      LeftUpLeg LeftLeg
      LeftLeg LeftFoot
      LeftFoot LeftToeBase
      Spine Spine_dum1 Spine_dum2 Spine_dum3
      Spine_dum1 RightShoulder
      Spine_dum2 LeftShoulder
      Spine_dum3 Head
      RightShoulder RightArm
      RightArm RightForeArm
      RightForeArm RightHand
      RightHand RightHand_dum1 RightHand_dum2
      RightHand_dum2 RightHandThumb1
      LeftShoulder LeftArm
      LeftArm LeftForeArm
      LeftForeArm LeftHand
      LeftHand LeftHand_dum1 LeftHand_dum2
      LeftHand_dum2 LeftHandThumb1
   end

# File created by Blade
# Date/Time:  Thu Jan 22 16:31:11 2015
# Frame Rate: 120.000 fps
#------------------------------------------------------
:FULLY-SPECIFIED
:DEGREES
120
root 4.346356 36.617856 4.099786 -4.389428 11.180580 4.817040
RightUpLeg 18.174757 -4.580513 -13.474790
RightLeg -8.329769 -0.000000 0.000000
RightFoot -14.715381 -24.249040 23.809608
RightToeBase 12.934651 -0.000000 -0.000000
LeftUpLeg -4.089209 11.582625 18.578955
LeftLeg 7.498387 -0.000000 -0.000000
LeftFoot 15.110870 25.004517 -20.572525
LeftToeBase 1.562772 -0.000000 -0.000000
Spine 13.042777 -12.067647 6.584616
RightShoulder -5.467736 -19.279603 -22.018032
RightArm 12.109440 23.632401 43.167450
RightForeArm 4.268371 -0.000000 28.531802
RightHand 5.108960 0.000000 -5.377126
RightHandThumb1 -24.326973 -0.000000 -32.862282
LeftShoulder -24.388615 35.390323 8.153491
LeftArm 52.663402 -41.795091 -66.895249
LeftForeArm 38.755947 -0.000000 10.169601
LeftHand -16.644934 -0.000000 -5.419548
LeftHandThumb1 -26.253704 0.000000 33.147579
Head 4.444800 20.569410 -10.035821
121
root 4.500483 36.578737 4.138583 -4.362717 11.364754 4.720320
RightUpLeg 18.307069 -4.717256 -13.630076
RightLeg -8.353729 -0.000000 0.000000
RightFoot -14.748031 -24.247050 23.949406
RightToeBase 12.968132 -0.000000 -0.000000
LeftUpLeg -4.153201 12.031369 19.110404
LeftLeg 6.999738 -0.000000 -0.000000
LeftFoot 16.170380 25.005565 -20.413779
LeftToeBase 2.010019 -0.000000 -0.000000
Spine 12.985325 -12.168352 6.623373
RightShoulder -5.525015 -19.422593 -21.858439
RightArm 12.035595 23.612399 43.327468
RightForeArm 4.359022 -0.000000 28.535871
RightHand 5.116905 -0.000000 -5.591549
RightHandThumb1 -24.326973 -0.000000 -32.862282
LeftShoulder -24.365390 35.415573 8.175400
LeftArm 52.508473 -41.787802 -66.783251
LeftForeArm 38.773283 0.000000 10.286850
LeftHand -16.644399 -0.000000 -5.626932
LeftHandThumb1 -26.253704 0.000000 33.147579
Head 4.395885 20.498080 -10.040090
122
root 4.659103 36.537549 4.176941 -4.336546 11.545435 4.618212
RightUpLeg 18.438049 -4.844409 -13.784477
RightLeg -8.376613 -0.000000 0.000000
RightFoot -14.800648 -24.245463 24.117752
RightToeBase 12.963279 -0.000000 -0.000000
LeftUpLeg -4.227960 12.445762 19.633562
LeftLeg 6.513145 -0.000000 -0.000000
LeftFoot 17.303789 24.914970 -20.443423
LeftToeBase 2.486121 -0.000000 -0.000000
Spine 12.932637 -12.296466 6.661813
RightShoulder -5.526564 -19.457179 -21.765906
RightArm 11.870865 23.595698 43.520085
RightForeArm 4.329604 -0.000000 28.573571
RightHand 4.972125 -0.000000 -5.709886
RightHandThumb1 -24.326973 -0.000000 -32.862282
LeftShoulder -24.409738 35.464004 8.117292
LeftArm 52.415736 -41.787163 -66.623333
LeftForeArm 38.683502 -0.000000 10.281763
LeftHand -16.593003 0.000000 -5.440368
LeftHandThumb1 -26.253704 0.000000 33.147579
Head 4.329362 20.474777 -10.037431
123
root 4.824246 36.494673 4.214737 -4.335037 11.695628 4.499302
RightUpLeg 18.576417 -4.946525 -13.949902
RightLeg -8.376609 -0.000000 0.000000
RightFoot -14.845931 -24.137880 24.367940
RightToeBase 12.942902 -0.000000 -0.000000
LeftUpLeg -4.281545 12.832816 20.166927
LeftLeg 6.061829 -0.000000 -0.000000
LeftFoot 18.491050 24.806626 -20.537037
LeftToeBase 2.996336 -0.000000 -0.000000
Spine 12.923182 -12.366584 6.721447
RightShoulder -5.549624 -19.532096 -21.672092
RightArm 11.729884 23.590758 43.696012
RightForeArm 4.321989 -0.000000 28.514909
RightHand 5.103082 -0.000000 -5.827605
RightHandThumb1 -24.326973 -0.000000 -32.862282
LeftShoulder -24.437568 35.497500 8.078830
LeftArm 52.345408 -41.799579 -66.514686
LeftForeArm 38.776876 -0.000000 10.360565
LeftHand -16.577863 -0.000000 -5.680276
LeftHandThumb1 -26.253704 0.000000 33.147579
Head 4.255229 20.437807 -10.039506
